<svg xmlns="http://www.w3.org/2000/svg" xmlns:xlink="http://www.w3.org/1999/xlink" width="40" zoomAndPan="magnify" viewBox="0 0 30 30.000001" height="40" preserveAspectRatio="xMidYMid meet" version="1.0"><defs><clipPath id="04df0d1266"><path d="M 2.378906 3.832031 L 26.648438 3.832031 L 26.648438 25.121094 L 2.378906 25.121094 Z M 2.378906 3.832031 " clip-rule="nonzero"/></clipPath><clipPath id="6315ddcee5"><path d="M 3.339844 7.300781 C 1.375 10.535156 2.757812 13.6875 4.496094 15.359375 L 14.667969 25.121094 L 24.628906 15.394531 C 26.246094 13.59375 26.867188 11.6875 26.519531 9.5625 C 26.046875 6.621094 23.621094 4.34375 20.628906 4.015625 C 18.796875 3.820312 17.023438 4.339844 15.636719 5.488281 C 15.265625 5.796875 14.933594 6.144531 14.644531 6.519531 C 14.300781 6.089844 13.894531 5.699219 13.4375 5.351562 C 11.847656 4.144531 9.824219 3.664062 7.875 4.035156 C 6.035156 4.394531 4.378906 5.582031 3.339844 7.300781 Z M 3.339844 7.300781 " clip-rule="nonzero"/></clipPath></defs><g clip-path="url(#04df0d1266)"><g clip-path="url(#6315ddcee5)"><path fill="#ef3128" d="M 2.378906 3.914062 L 26.648438 3.914062 L 26.648438 25.121094 L 2.378906 25.121094 Z M 2.378906 3.914062 " fill-opacity="1" fill-rule="nonzero"/></g></g></svg>